<svg id="regular" enable-background="new 0 0 24 24" height="512" viewBox="0 0 24 24" width="512" xmlns="http://www.w3.org/2000/svg"><g><path d="m3.762 9.815c-.414 0-.75-.336-.75-.75 0-2.5.899-4.777 2.533-6.41 1.711-1.712 3.987-2.655 6.409-2.655.414 0 .75.336.75.75s-.336.75-.75.75c-2.021 0-3.92.787-5.349 2.216-1.351 1.35-2.094 3.25-2.094 5.349.001.414-.335.75-.749.75z"/></g><g><path d="m17.25 24h-8.5c-.414 0-.75-.336-.75-.75v-2.929l-2.143.583c-.161.059-.383.096-.627.096-1.225 0-2.221-.996-2.221-2.22v-2.78h-1.819c-.684 0-1.24-.556-1.24-1.24 0-.276.132-.508.411-.937l2.212-3.208c.281-.438.437-.979.437-1.545 0-2.502.898-4.779 2.53-6.41.203-.204.419-.398.635-.582.239-.194.466-.366.702-.528.262-.17.498-.32.757-.46.287-.144.53-.266.784-.377.541-.233 1.138-.413 1.777-.539.268-.054.538-.097.819-.129 1.005-.109 2.021-.037 2.902.164.403.092.656.494.564.898s-.492.655-.898.565c-.757-.173-1.661-.215-2.403-.136-.233.027-.463.063-.692.11-.539.105-1.033.254-1.47.443-.226.099-.448.21-.669.321-.223.12-.426.25-.639.389-.189.129-.383.277-.577.434-.171.145-.356.311-.53.487-1.35 1.348-2.092 3.248-2.092 5.35 0 .855-.238 1.677-.688 2.376l-2.108 3.054h2.046c.414 0 .75.336.75.75v3.53c0 .397.323.72.721.72.071 0 .127-.008.18-.027l3.143-.857c.229-.061.468-.014.652.128.185.142.294.362.294.596v3.16h7v-4.17c0-1.589.443-3.146 1.282-4.504.217-.351.677-.463 1.032-.244.352.218.461.68.243 1.032-.691 1.121-1.057 2.406-1.057 3.716v4.92c0 .414-.336.75-.75.75z"/></g><g><path d="m20.173 12h-1.346c-.659 0-1.327-.512-1.327-1.491v-1.286c0-.411-.186-.79-.485-.987-1.535-1.017-2.289-2.849-1.92-4.668.34-1.677 1.684-3.062 3.344-3.445 1.376-.316 2.781-.005 3.861.855 1.081.858 1.7 2.143 1.7 3.522 0 1.506-.755 2.904-2.019 3.738-.296.197-.481.584-.481 1.011v1.424c0 .732-.596 1.327-1.327 1.327zm-1.173-1.5h1v-1.251c0-.938.432-1.784 1.155-2.262.842-.556 1.345-1.486 1.345-2.487 0-.919-.413-1.776-1.134-2.349-.722-.574-1.668-.78-2.59-.567-1.098.253-1.986 1.17-2.211 2.282-.251 1.236.238 2.431 1.277 3.119.725.479 1.158 1.316 1.158 2.238z"/></g></svg>